<?xml version="1.0" encoding="UTF-8" standalone="no"?>
<svg width="1200" height="300" viewBox="0 0 1200 300" xmlns="http://www.w3.org/2000/svg">
  <defs>
    <linearGradient id="rocketGrad" x1="0%" y1="0%" x2="0%" y2="100%">
      <stop offset="0%" style="stop-color:#14b8a6; stop-opacity:1" />
      <stop offset="100%" style="stop-color:#06b6d4; stop-opacity:1" />
    </linearGradient>
    <linearGradient id="flameGrad" x1="0%" y1="0%" x2="0%" y2="100%">
      <stop offset="0%" style="stop-color:#fbbf24; stop-opacity:1" />
      <stop offset="100%" style="stop-color:#f59e0b; stop-opacity:1" />
    </linearGradient>
    <linearGradient id="textGrad" x1="0%" y1="0%" x2="100%" y2="0%">
      <stop offset="0%" style="stop-color:#14b8a6; stop-opacity:1" />
      <stop offset="100%" style="stop-color:#06b6d4; stop-opacity:1" />
    </linearGradient>
  </defs>

  <!-- Rocket -->
  <g transform="translate(95,150) rotate(-15)">
    <!-- Main body -->
    <ellipse cx="0" cy="0" rx="40" ry="70" fill="url(#rocketGrad)"/>

    <!-- Nose cone -->
    <polygon points="-40,-70 40,-70 0,-120" fill="#0d9488"/>

    <!-- Left fin -->
    <polygon points="-40,28 -80,85 -28,62" fill="#0d9488"/>

    <!-- Right fin -->
    <polygon points="40,28 80,85 28,62" fill="#0d9488"/>

    <!-- Window -->
    <circle cx="0" cy="-8" r="24" fill="white" opacity="0.95"/>
    <circle cx="0" cy="-8" r="17" fill="#fbbf24"/>

    <!-- Robot face -->
    <circle cx="-5" cy="-11" r="3" fill="#1e293b"/>
    <circle cx="5" cy="-11" r="3" fill="#1e293b"/>
    <path d="M -6 -1 Q 0 6 6 -1" stroke="#1e293b" stroke-width="2.5" fill="none"/>

    <!-- Flame -->
    <polygon points="-14,70 14,70 0,115" fill="url(#flameGrad)"/>
  </g>

  <!-- Text -->
  <text x="230" y="170" font-family="Nunito, system-ui, sans-serif" font-size="95" font-weight="900" fill="white">
    Teach
  </text>
  <text x="600" y="170" font-family="Nunito, system-ui, sans-serif" font-size="95" font-weight="900" fill="url(#textGrad)">
    AI
  </text>
  <text x="735" y="170" font-family="Nunito, system-ui, sans-serif" font-size="95" font-weight="900" fill="white">
    Early
  </text>
  <text x="1075" y="170" font-family="Nunito, system-ui, sans-serif" font-size="50" font-weight="600" fill="#64748b">
    .com
  </text>
</svg>
