<?xml version="1.0" encoding="UTF-8" standalone="no"?>
<svg width="1000" height="200" viewBox="0 0 1000 200" xmlns="http://www.w3.org/2000/svg">
  <defs>
    <linearGradient id="rocketGrad" x1="0%" y1="0%" x2="0%" y2="100%">
      <stop offset="0%" style="stop-color:#14b8a6; stop-opacity:1" />
      <stop offset="100%" style="stop-color:#06b6d4; stop-opacity:1" />
    </linearGradient>
    <linearGradient id="flameGrad" x1="0%" y1="0%" x2="0%" y2="100%">
      <stop offset="0%" style="stop-color:#fbbf24; stop-opacity:1" />
      <stop offset="100%" style="stop-color:#f59e0b; stop-opacity:1" />
    </linearGradient>
    <linearGradient id="textGrad" x1="0%" y1="0%" x2="100%" y2="0%">
      <stop offset="0%" style="stop-color:#14b8a6; stop-opacity:1" />
      <stop offset="100%" style="stop-color:#06b6d4; stop-opacity:1" />
    </linearGradient>
  </defs>

  <!-- Rocket - rounder, chubbier, more cartoonish -->
  <g transform="translate(68,100) rotate(-18)">
    <!-- Main body - wider & rounder -->
    <ellipse cx="0" cy="0" rx="34" ry="50" fill="url(#rocketGrad)" stroke="#0d9488" stroke-width="2"/>

    <!-- Nose cone - rounded -->
    <path d="M -30,-48 Q -28,-55 -20,-65 Q 0,-88 20,-65 Q 28,-55 30,-48 Z" fill="#0d9488"/>

    <!-- Left fin - rounded -->
    <path d="M -32,18 Q -58,52 -50,62 Q -44,68 -24,48 Z" fill="#0d9488" stroke="#0a7e73" stroke-width="1"/>

    <!-- Right fin - rounded -->
    <path d="M 32,18 Q 58,52 50,62 Q 44,68 24,48 Z" fill="#0d9488" stroke="#0a7e73" stroke-width="1"/>

    <!-- Window - big cartoonish porthole -->
    <circle cx="0" cy="-6" r="20" fill="white" opacity="0.95" stroke="#0d9488" stroke-width="2"/>
    <circle cx="0" cy="-6" r="14" fill="#fbbf24"/>

    <!-- Robot face - bigger eyes, rounder smile -->
    <circle cx="-5" cy="-9" r="3.5" fill="#1e293b"/>
    <circle cx="5" cy="-9" r="3.5" fill="#1e293b"/>
    <!-- Eye highlights -->
    <circle cx="-3.5" cy="-10.5" r="1.2" fill="white" opacity="0.7"/>
    <circle cx="6.5" cy="-10.5" r="1.2" fill="white" opacity="0.7"/>
    <!-- Big smile -->
    <path d="M -7 0 Q 0 8 7 0" stroke="#1e293b" stroke-width="2.5" fill="none" stroke-linecap="round"/>

    <!-- Flame - bouncier -->
    <path d="M -12,50 Q -16,72 -6,82 Q 0,88 6,82 Q 16,72 12,50 Z" fill="url(#flameGrad)"/>
    <!-- Inner flame -->
    <path d="M -5,52 Q -6,66 0,72 Q 6,66 5,52 Z" fill="#fef3c7" opacity="0.8"/>
  </g>

  <!-- Text - tighter spacing -->
  <text x="155" y="118" font-family="Nunito, system-ui, sans-serif" font-size="72" font-weight="900" fill="white" letter-spacing="-1">
    Teach
  </text>
  <text x="440" y="118" font-family="Nunito, system-ui, sans-serif" font-size="72" font-weight="900" fill="url(#textGrad)" letter-spacing="-1">
    AI
  </text>
  <text x="540" y="118" font-family="Nunito, system-ui, sans-serif" font-size="72" font-weight="900" fill="white" letter-spacing="-1">
    Early
  </text>
  <text x="830" y="118" font-family="Nunito, system-ui, sans-serif" font-size="38" font-weight="600" fill="#64748b">
    .com
  </text>
</svg>
